<svg width="47" height="47" viewBox="0 0 47 47" fill="none" xmlns="http://www.w3.org/2000/svg">
<path d="M38.3833 41.125L26.0458 28.7875C25.0667 29.5708 23.9406 30.191 22.6677 30.6479C21.3948 31.1049 20.0403 31.3333 18.6042 31.3333C15.0465 31.3333 12.0359 30.1015 9.57233 27.638C7.10744 25.1731 5.875 22.1618 5.875 18.6042C5.875 15.0465 7.10744 12.0353 9.57233 9.57038C12.0359 7.10679 15.0465 5.875 18.6042 5.875C22.1618 5.875 25.1731 7.10679 27.638 9.57038C30.1015 12.0353 31.3333 15.0465 31.3333 18.6042C31.3333 20.0403 31.1049 21.3948 30.6479 22.6677C30.191 23.9406 29.5708 25.0667 28.7875 26.0458L41.125 38.3833L38.3833 41.125ZM18.6042 27.4167C21.0521 27.4167 23.1331 26.5602 24.8473 24.8473C26.5602 23.1331 27.4167 21.0521 27.4167 18.6042C27.4167 16.1562 26.5602 14.0752 24.8473 12.361C23.1331 10.6481 21.0521 9.79167 18.6042 9.79167C16.1562 9.79167 14.0752 10.6481 12.361 12.361C10.6481 14.0752 9.79167 16.1562 9.79167 18.6042C9.79167 21.0521 10.6481 23.1331 12.361 24.8473C14.0752 26.5602 16.1562 27.4167 18.6042 27.4167Z" fill="black"/>
</svg>
