<svg width="64" height="57" viewBox="0 0 64 57" fill="none" xmlns="http://www.w3.org/2000/svg">
<path d="M44.2154 15.625V6.25H18.9495V15.625H12.633V3.125C12.633 2.23958 12.9351 1.49687 13.5394 0.896875C14.1458 0.298958 14.8964 0 15.7912 0H47.3737C48.2685 0 49.0181 0.298958 49.6223 0.896875C50.2287 1.49687 50.5319 2.23958 50.5319 3.125V15.625H44.2154ZM6.31649 21.875H56.8484H12.633H6.31649ZM50.5319 29.6875C51.4268 29.6875 52.1763 29.3875 52.7806 28.7875C53.387 28.1896 53.6902 27.4479 53.6902 26.5625C53.6902 25.6771 53.387 24.9344 52.7806 24.3344C52.1763 23.7365 51.4268 23.4375 50.5319 23.4375C49.6371 23.4375 48.8875 23.7365 48.2833 24.3344C47.6769 24.9344 47.3737 25.6771 47.3737 26.5625C47.3737 27.4479 47.6769 28.1896 48.2833 28.7875C48.8875 29.3875 49.6371 29.6875 50.5319 29.6875ZM18.9495 50H44.2154V37.5H18.9495V50ZM18.9495 56.25C17.2124 56.25 15.726 55.6385 14.49 54.4156C13.252 53.1906 12.633 51.7188 12.633 50V43.75H3.15825C2.26341 43.75 1.51385 43.45 0.909575 42.85C0.303192 42.2521 0 41.5104 0 40.625V25C0 22.3438 0.921155 20.1177 2.76346 18.3219C4.60577 16.524 6.84286 15.625 9.47474 15.625H53.6902C56.3747 15.625 58.6255 16.524 60.4425 18.3219C62.2574 20.1177 63.1649 22.3438 63.1649 25V40.625C63.1649 41.5104 62.8617 42.2521 62.2553 42.85C61.6511 43.45 60.9015 43.75 60.0067 43.75H50.5319V50C50.5319 51.7188 49.914 53.1906 48.678 54.4156C47.44 55.6385 45.9525 56.25 44.2154 56.25H18.9495ZM56.8484 37.5V25C56.8484 24.1146 56.5452 23.3719 55.9388 22.7719C55.3346 22.174 54.585 21.875 53.6902 21.875H9.47474C8.5799 21.875 7.82929 22.174 7.22291 22.7719C6.61863 23.3719 6.31649 24.1146 6.31649 25V37.5H12.633V31.25H50.5319V37.5H56.8484Z" fill="#00255C"/>
</svg>
